<svg width="12" height="12" viewBox="0 0 12 12" fill="none" xmlns="http://www.w3.org/2000/svg">
<path d="M11.4892 5.755L6.23916 0.505001C6.02916 0.295001 5.7375 0.166668 5.41666 0.166668H1.33333C0.691664 0.166668 0.166664 0.691668 0.166664 1.33333V5.41667C0.166664 5.7375 0.294997 6.02917 0.510831 6.245L5.76083 11.495C5.97083 11.705 6.2625 11.8333 6.58333 11.8333C6.90416 11.8333 7.19583 11.705 7.40583 11.4892L11.4892 7.40584C11.705 7.19583 11.8333 6.90417 11.8333 6.58334C11.8333 6.2625 11.6992 5.965 11.4892 5.755ZM6.58333 10.6725L1.33333 5.41667V1.33333H5.41666V1.3275L10.6667 6.5775L6.58333 10.6725V10.6725Z" fill="black"/>
</svg>
